HIERARCHY
ROOT hip
{
  OFFSET 0 0 0
  CHANNELS 6 Xposition Yposition Zposition Zrotation Yrotation Xrotation
  JOINT abdomen
  {
    OFFSET 0 20.6881 -0.73152
    CHANNELS 3 Zrotation Xrotation Yrotation
    JOINT chest
    {
      OFFSET 0 11.7043 -0.48768
      CHANNELS 3 Zrotation Xrotation Yrotation
      JOINT neck
      {
        OFFSET 0 22.1894 -2.19456
        CHANNELS 3 Zrotation Xrotation Yrotation
        JOINT head
        {
          OFFSET -0.24384 7.07133 1.2192
          CHANNELS 3 Zrotation Xrotation Yrotation
          JOINT leftEye
          {
            OFFSET 4.14528 8.04674 8.04672
            CHANNELS 3 Zrotation Xrotation Yrotation
            End Site
            {
              OFFSET 1 0 0
            }
          }
          JOINT rightEye
          {
            OFFSET -3.6576 8.04674 8.04672
            CHANNELS 3 Zrotation Xrotation Yrotation
            End Site
            {
              OFFSET 1 0 0
            }
          }
        }
      }
      JOINT rCollar
      {
        OFFSET -2.68224 19.2634 -4.8768
        CHANNELS 3 Zrotation Xrotation Yrotation
        JOINT rShldr
        {
          OFFSET -8.77824 -1.95073 1.46304
          CHANNELS 3 Zrotation Xrotation Yrotation
          JOINT rForeArm
          {
            OFFSET -28.1742 -1.7115 0.48768
            CHANNELS 3 Zrotation Xrotation Yrotation
            JOINT rHand
            {
              OFFSET -22.5879 0.773209 7.07136
              CHANNELS 3 Zrotation Xrotation Yrotation
              JOINT rThumb1
              {
                OFFSET -1.2192 -0.487915 3.41376
                CHANNELS 3 Zrotation Xrotation Yrotation
                JOINT rThumb2
                {
                  OFFSET -3.37035 -0.52449 3.41376
                  CHANNELS 3 Zrotation Xrotation Yrotation
                  End Site
                  {
                    OFFSET -1.78271 -1.18214 1.43049
                  }
                }
              }
              JOINT rIndex1
              {
                OFFSET -7.75947 0.938293 5.60832
                CHANNELS 3 Zrotation Xrotation Yrotation
                JOINT rIndex2
                {
                  OFFSET -2.54057 -0.884171 1.56538
                  CHANNELS 3 Zrotation Xrotation Yrotation
                  End Site
                  {
                    OFFSET -1.62519 -0.234802 1.16502
                  }
                }
              }
              JOINT rMid1
              {
                OFFSET -8.24714 1.18213 3.41376
                CHANNELS 3 Zrotation Xrotation Yrotation
                JOINT rMid2
                {
                  OFFSET -3.10165 -0.590103 1.0647
                  CHANNELS 3 Zrotation Xrotation Yrotation
                  End Site
                  {
                    OFFSET -2.48547 -0.328903 0.83742
                  }
                }
              }
              JOINT rRing1
              {
                OFFSET -8.82822 0.546677 1.51678
                CHANNELS 3 Zrotation Xrotation Yrotation
                JOINT rRing2
                {
                  OFFSET -2.60934 -0.819778 -0.0198488
                  CHANNELS 3 Zrotation Xrotation Yrotation
                  End Site
                  {
                    OFFSET -2.33842 -0.294052 0.168128
                  }
                }
              }
              JOINT rPinky1
              {
                OFFSET -8.27202 -0.0477905 -0.4584
                CHANNELS 3 Zrotation Xrotation Yrotation
                JOINT rPinky2
                {
                  OFFSET -1.82734 -0.647385 -0.700984
                  CHANNELS 3 Zrotation Xrotation Yrotation
                  End Site
                  {
                    OFFSET -1.69225 -0.51767 -0.607171
                  }
                }
              }
            }
          }
        }
      }
      JOINT lCollar
      {
        OFFSET 2.68224 19.2634 -4.8768
        CHANNELS 3 Zrotation Xrotation Yrotation
        JOINT lShldr
        {
          OFFSET 8.77824 -1.95073 1.46304
          CHANNELS 3 Zrotation Xrotation Yrotation
          JOINT lForeArm
          {
            OFFSET 28.1742 -1.7115 0.48768
            CHANNELS 3 Zrotation Xrotation Yrotation
            JOINT lHand
            {
              OFFSET 22.5879 0.773209 7.07136
              CHANNELS 3 Zrotation Xrotation Yrotation
              JOINT lThumb1
              {
                OFFSET 1.2192 -0.487915 3.41376
                CHANNELS 3 Zrotation Xrotation Yrotation
                JOINT lThumb2
                {
                  OFFSET 3.37035 -0.52449 3.41376
                  CHANNELS 3 Zrotation Xrotation Yrotation
                  End Site
                  {
                    OFFSET 1.78271 -1.18214 1.43049
                  }
                }
              }
              JOINT lIndex1
              {
                OFFSET 7.75947 0.938293 5.60832
                CHANNELS 3 Zrotation Xrotation Yrotation
                JOINT lIndex2
                {
                  OFFSET 2.54057 -0.884171 1.56538
                  CHANNELS 3 Zrotation Xrotation Yrotation
                  End Site
                  {
                    OFFSET 1.62519 -0.234802 1.16502
                  }
                }
              }
              JOINT lMid1
              {
                OFFSET 8.24714 1.18213 3.41376
                CHANNELS 3 Zrotation Xrotation Yrotation
                JOINT lMid2
                {
                  OFFSET 3.10165 -0.590103 1.0647
                  CHANNELS 3 Zrotation Xrotation Yrotation
                  End Site
                  {
                    OFFSET 2.48547 -0.328903 0.83742
                  }
                }
              }
              JOINT lRing1
              {
                OFFSET 8.82822 0.546677 1.51678
                CHANNELS 3 Zrotation Xrotation Yrotation
                JOINT lRing2
                {
                  OFFSET 2.60934 -0.819778 -0.0198488
                  CHANNELS 3 Zrotation Xrotation Yrotation
                  End Site
                  {
                    OFFSET 2.33842 -0.294052 0.168128
                  }
                }
              }
              JOINT lPinky1
              {
                OFFSET 8.27202 -0.0477905 -0.4584
                CHANNELS 3 Zrotation Xrotation Yrotation
                JOINT lPinky2
                {
                  OFFSET 1.82734 -0.647385 -0.700984
                  CHANNELS 3 Zrotation Xrotation Yrotation
                  End Site
                  {
                    OFFSET 1.69225 -0.51767 -0.607171
                  }
                }
              }
            }
          }
        }
      }
    }
  }
  JOINT rButtock
  {
    OFFSET -8.77824 4.35084 1.2192
    CHANNELS 3 Zrotation Xrotation Yrotation
    JOINT rThigh
    {
      OFFSET 0 -1.70687 -2.19456
      CHANNELS 3 Zrotation Xrotation Yrotation
      JOINT rShin
      {
        OFFSET 0 -36.8199 0.73152
        CHANNELS 3 Zrotation Xrotation Yrotation
        JOINT rFoot
        {
          OFFSET 0.73152 -45.1104 -5.12064
          CHANNELS 3 Zrotation Xrotation Yrotation
          End Site
          {
            OFFSET -1.1221 -3.69964 12.103
          }
        }
      }
    }
  }
  JOINT lButtock
  {
    OFFSET 8.77824 4.35084 1.2192
    CHANNELS 3 Zrotation Xrotation Yrotation
    JOINT lThigh
    {
      OFFSET 0 -1.70687 -2.19456
      CHANNELS 3 Zrotation Xrotation Yrotation
      JOINT lShin
      {
        OFFSET 0 -36.8199 0.73152
        CHANNELS 3 Zrotation Xrotation Yrotation
        JOINT lFoot
        {
          OFFSET -0.73152 -45.1104 -5.12064
          CHANNELS 3 Zrotation Xrotation Yrotation
          End Site
          {
            OFFSET 1.1221 -3.69964 12.103
          }
        }
      }
    }
  }
}
MOTION
Frames:	4
Frame Time:	0.03333
0.0 0.0 0.0 0.0 0.0 0.0 0.0 0.0 0.0 0.0 0.0 0.0 0.0 0.0 0.0 0.0 0.0 0.0 0.0 0.0 0.0 0.0 0.0 0.0 0.0 0.0 0.0 0.0 0.0 0.0 0.0 0.0 0.0 0.0 0.0 0.0 0.0 0.0 0.0 0.0 0.0 0.0 0.0 0.0 0.0 0.0 0.0 0.0 0.0 0.0 0.0 0.0 0.0 0.0 0.0 0.0 0.0 0.0 0.0 0.0 0.0 0.0 0.0 0.0 0.0 0.0 0.0 0.0 0.0 0.0 0.0 0.0 0.0 0.0 0.0 0.0 0.0 0.0 0.0 0.0 0.0 0.0 0.0 0.0 0.0 0.0 0.0 0.0 0.0 0.0 0.0 0.0 0.0 0.0 0.0 0.0 0.0 0.0 0.0 0.0 0.0 0.0 0.0 0.0 0.0 0.0 0.0 0.0 0.0 0.0 0.0 0.0 0.0 0.0 0.0 0.0 0.0 0.0 0.0 0.0 0.0 0.0 0.0 0.0 0.0 0.0 0.0 0.0 0.0 0.0 0.0 0.0
-0.16199999999999998 58.6685 0.037 -179.157741 32.417591 -179.72522 0.691938 -2.20705 58.913022 10.793127 9.642598 -47.931167 -9.272318 -16.337916 -46.696717 43.263148 -16.147287 59.039362 172.449592 4.771313 -64.534825 34.012476 -15.937247 -49.185595 -108.001008 37.534351 -15.841179 -153.724637 42.523688 -14.777039 -9.864821 -84.068248 -41.752177 19.762068 -16.131973 20.211632 157.54326 -77.976898 -38.302141 -63.155623 -47.740189 152.951118 6.670338 11.247047 -48.571601 88.201194 11.855699 45.961171 178.139565 23.347598 144.20553 170.907007 -3.477629 -139.323306 -92.158947 23.275311 86.550644 47.121086 27.024452 -3.286672 -57.979533 47.593117 91.94057 -157.52649 39.629136 -66.793853 -59.101056 20.818109 -42.791464 -99.628178 75.150459 74.993843 -1.948777 3.245674 48.109882 -0.54134 15.995017 -69.705086 -173.894319 7.684677 109.047497 109.191669 -79.703032 -75.470848 24.972116 10.174868 106.01572 9.856723 11.994311 142.804289 -109.913801 32.011283 138.568032 139.253314 62.321414 -45.698252 48.137538 -18.460214 19.006771 -1.767222 30.371129 12.448594 -109.215698 86.389905 89.947928 138.040316 -18.073262 105.550333 -12.118526 -60.135249 -2.780864 25.153462 61.277121 -28.167197 6.88029 -4.143394 96.355345 10.084596 -55.167548 177.025791 -3.58503 34.287435 -175.350114 -0.493462 33.24036 -179.099824 -5.391836 -0.074086 -98.094581 -87.805293 -20.81346 79.938449
-2.031 62.9521 0.07050000000000001 165.176127 72.69165 171.130247 -12.503817 13.74039 2.501653 8.796017 -12.71058 4.761855 0.402503 21.967901 64.45693 -32.969091 -12.128866 -93.250527 6.970022 1.861554 29.874332 -12.862641 -3.930352 33.860324 -152.278865 18.028581 157.380917 175.183444 -0.108397 -176.855094 177.972383 13.343084 71.724599 170.196934 -16.07283 145.232584 -5.579615 4.922499 -12.496779 32.954634 -25.630198 31.452676 0.335221 17.081546 10.217243 -63.411213 47.537494 53.11423 -175.485815 -51.339582 139.062539 -0.050994 20.282289 30.775835 -47.789693 -84.196706 -67.579789 -2.549425 38.103484 8.818094 89.779082 65.208984 -70.446422 -26.268169 -25.808676 69.295236 162.002363 -68.042557 -166.104199 -138.231598 19.775361 136.306108 91.164907 -15.134081 -69.637196 -173.611781 -65.581838 -148.566095 174.875815 7.502899 -98.097617 170.086857 21.14567 -55.720118 -102.793163 -82.973535 -35.359447 -10.97022 10.202493 -56.368392 36.126858 71.397664 -40.810872 147.642842 -46.802249 146.433173 127.697396 21.236053 152.303536 -73.99071 56.817583 59.201759 168.02616 -56.162666 96.021891 -10.513542 64.163265 101.613718 8.007323 5.392963 -11.130008 -45.932121 -63.442503 69.260759 78.550314 -18.093927 19.443374 81.378459 79.448049 -165.024867 6.597268 13.126071 -9.828236 15.547835 -33.058018 -40.612607 -62.376055 12.870316 -78.965799 122.924184 1.489323 163.365698
-2.8013 55.7512 0.7243999999999999 160.786233 72.850486 162.083765 -15.409514 25.087515 33.02607 -4.265393 -22.729971 -22.321664 12.792422 33.569036 95.620962 -44.355032 19.448547 -137.250435 -27.672144 -1.995947 8.091357 -22.05376 2.892377 -14.763728 -0.050417 37.454465 -5.361065 -131.995824 42.36094 109.282206 175.646406 18.662174 -113.897779 -8.015521 36.591281 -14.155322 -165.959427 0.097028 81.290912 -85.503289 7.074127 12.877841 -146.953735 -36.839854 97.466908 135.54001 69.268351 -90.884796 -128.714275 -79.050549 -170.38465 104.279955 -57.634786 41.895753 -71.861334 -83.177456 -81.523926 179.673173 65.861841 -138.388183 3.995938 -52.294266 35.995194 56.569645 56.436471 -102.43671 152.970102 -7.361574 -156.032207 156.098675 67.189403 -98.452626 -179.216667 69.090965 91.771955 2.263755 -22.422414 -1.471481 166.47043 5.747795 -89.779764 156.053274 -33.345009 -81.939101 20.263183 24.082375 -12.548957 23.785489 -13.757415 32.125668 -5.654551 -44.972568 12.883549 174.76416 -3.00505 -48.190413 40.0309 19.47971 34.330562 107.088436 -1.637688 -127.374883 163.315117 -35.626166 130.756697 -160.335759 66.083913 146.452142 -156.454888 70.622887 -0.0 144.629663 -13.658397 -180.0 91.757402 -60.126994 129.534293 -178.6434 13.701532 -134.064111 9.442126 13.812666 -4.308136 9.222447 -22.364751 23.108801 4.440972 52.994776 -37.770734 59.93264 27.533153 31.617156
